<svg xmlns="http://www.w3.org/2000/svg" width="24" height="24" fill="none" viewBox="0 0 24 24"><path fill="url(#copy_24_color__a)" d="M8.5 13.75c0 2.35 1.9 4.25 4.25 4.25h1.74a3.25 3.25 0 0 1-3.24 3h-5A3.25 3.25 0 0 1 3 17.75v-7.5C3 8.45 4.46 7 6.25 7H8.5z"/><path fill="url(#copy_24_color__b)" d="M17.75 3C19.55 3 21 4.46 21 6.25v7.5c0 1.8-1.46 3.25-3.25 3.25h-5a3.25 3.25 0 0 1-3.25-3.25v-7.5C9.5 4.45 10.96 3 12.75 3z"/><defs><linearGradient id="copy_24_color__a" x1="3" x2="14.5" y1="7" y2="22" gradientUnits="userSpaceOnUse"><stop stop-color="#36dff1"/><stop offset="1" stop-color="#0094f0"/></linearGradient><linearGradient id="copy_24_color__b" x1="9.5" x2="21" y1="3" y2="16.75" gradientUnits="userSpaceOnUse"><stop stop-color="#0fafff"/><stop offset="1" stop-color="#0078d4"/></linearGradient></defs></svg>
