<svg xmlns="http://www.w3.org/2000/svg" width="24" height="24" fill="none" viewBox="0 0 24 24"><path fill="url(#panel_right_contract_24_color__a)" d="M18.75 4C20.55 4 22 5.46 22 7.25v9.5c0 1.8-1.46 3.25-3.25 3.25H5.25A3.25 3.25 0 0 1 2 16.75v-9.5C2 5.45 3.46 4 5.25 4z"/><path fill="url(#panel_right_contract_24_color__b)" d="M14.5 5.5h4.25c.97 0 1.75.78 1.75 1.75v9.5c0 .97-.78 1.75-1.75 1.75H14.5z"/><path fill="url(#panel_right_contract_24_color__c)" d="M9.2 9.25a.75.75 0 0 1 1.05-.06l2.5 2.25a.75.75 0 0 1 0 1.12l-2.5 2.25a.75.75 0 1 1-1-1.12l1.05-.94H6.75a.75.75 0 0 1 0-1.5h3.55l-1.05-.94a.75.75 0 0 1-.06-1.06"/><defs><linearGradient id="panel_right_contract_24_color__a" x1="2" x2="22" y1="4" y2="20" gradientUnits="userSpaceOnUse"><stop stop-color="#36dff1"/><stop offset="1" stop-color="#0094f0"/></linearGradient><linearGradient id="panel_right_contract_24_color__b" x1="14.5" x2="20.5" y1="5.5" y2="18.5" gradientUnits="userSpaceOnUse"><stop stop-color="#0fafff"/><stop offset=".68" stop-color="#0078d4"/><stop offset="1" stop-color="#0057aa"/></linearGradient><linearGradient id="panel_right_contract_24_color__c" x1="6.75" x2="12.75" y1="9.25" y2="14.75" gradientUnits="userSpaceOnUse"><stop stop-color="#ffe06b"/><stop offset="1" stop-color="#fab500"/></linearGradient></defs></svg>
